<mxfile host="app.diagrams.net" modified="2023-10-23T13:09:52.456Z" agent="Mozilla/5.0 (Macintosh; Intel Mac OS X 10_15_7) AppleWebKit/537.36 (KHTML, like Gecko) Chrome/118.0.0.0 Safari/537.36" version="22.0.6" etag="v3lYBD0i08eIT9GmYGml" type="github">
  <diagram name="Page-1" id="80Oix9W_3gITdpNuIAfE">
    <mxGraphModel>
      <root>
        <mxCell id="0" />
        <mxCell id="1" parent="0" />
      </root>
    </mxGraphModel>
  </diagram>
</mxfile>
